<?xml version="1.0" encoding="UTF-8"?>
<svg id="LOGO" xmlns="http://www.w3.org/2000/svg" viewBox="0 0 400 400">
  <defs>
    <style>
      .cls-1 {
        fill: #002367;
      }

      .cls-1, .cls-2 {
        stroke-width: 0px;
      }

      .cls-2 {
        fill: #002e87;
      }
    </style>
  </defs>
  <g>
    <path class="cls-1" d="M343,122.64h-13.4c-57.34,0-106.9,34-129.6,82.91-22.76-48.92-72.26-82.91-129.66-82.91h-13.34S200,36.62,200,36.62l143,86.01Z"/>
    <path class="cls-1" d="M214.94,280.98v82.39s128.03-73.92,128.03-73.92v-139.74c-70.89,1.75-128.03,59.96-128.03,131.26Z"/>
    <path class="cls-2" d="M57,149.72v139.74s128.03,73.92,128.03,73.92v-82.39c0-71.3-57.13-129.51-128.03-131.26Z"/>
  </g>
  <path class="cls-2" d="M200,36.62v168.92c-22.76-48.92-72.26-82.91-129.66-82.91h-13.34S200,36.62,200,36.62Z"/>
</svg>