<?xml version="1.0" encoding="UTF-8"?>
<svg id="LOGO" xmlns="http://www.w3.org/2000/svg" viewBox="0 0 680 147.45">
  <defs>
    <style>
      .cls-1, .cls-2, .cls-3 {
        stroke-width: 0px;
      }

      .cls-2 {
        fill: #002367;
      }

      .cls-3 {
        fill: #002e87;
      }
    </style>
  </defs>
  <g>
    <g>
      <path class="cls-2" d="M116.13,47.12h-4.61c-19.72,0-36.76,11.69-44.57,28.51-7.83-16.82-24.85-28.51-44.59-28.51h-4.59s49.18-29.58,49.18-29.58l49.18,29.58Z"/>
      <path class="cls-2" d="M72.1,101.57v28.33s44.03-25.42,44.03-25.42v-48.05c-24.38.6-44.03,20.62-44.03,45.14Z"/>
      <path class="cls-3" d="M17.78,56.44v48.05s44.03,25.42,44.03,25.42v-28.33c0-24.52-19.65-44.54-44.03-45.14Z"/>
    </g>
    <path class="cls-3" d="M66.96,17.55v58.09c-7.83-16.82-24.85-28.51-44.59-28.51h-4.59s49.18-29.58,49.18-29.58Z"/>
  </g>
  <g>
    <path class="cls-1" d="M158.5,98.99c-12.89,0-17.82-1.24-20.25-5.12-1.43-2.24-1.92-4.72-1.97-10.26h11.36c0,2.59.62,4.18,2,5.17,1.42,1.14,2.34,1.21,8.86,1.21,4.5,0,5.62-.05,7.12-1.35,1.29-1.09,1.85-2.57,1.85-4.94,0-4.64-1.98-5.58-7.57-5.9-8.08-.45-12.7-.91-15.42-1.55-6.07-1.53-8.12-5.04-8.12-13.9,0-6.04,1.24-9.73,3.9-11.62,3.27-2.3,7.53-3.04,17.53-3.04,10.58,0,14.97,1.04,17.4,4.11,1.79,2.15,2.62,5.1,2.62,9.3l-.05,1.35h-11.4c-.02-5.19-2.62-6.07-8.42-6.07-6.71,0-9.52.85-9.52,6.13,0,2.1.53,3.59,1.56,4.41,1.1,1,1.88,1.08,6.39,1.4l.55.04c12.18.9,12.33.92,15.44,1.88,5.24,1.65,6.93,4.75,6.93,12.74,0,6.73-.94,10.18-3.36,12.32-3.27,2.82-7.35,3.69-17.45,3.69Z"/>
    <polygon class="cls-1" points="199.53 98.6 199.53 58.11 186.22 58.11 186.22 48.08 225.78 48.08 225.78 58.11 211.6 58.11 211.6 98.6 199.53 98.6"/>
    <path class="cls-1" d="M256.42,98.99c-8.13,0-12.18-.53-15.49-2.04-4.31-2.04-6.05-4.95-6.42-10.72-.16-1.56-.16-2.07-.16-4.9v-33.25h12.08v33.25c0,6.63,2.36,7.63,10.46,7.63,7.36,0,9.05-1.56,9.05-8.34v-32.54h12.07v32.15c0,.71-.39,6.67-.47,7.37-.51,4.03-2.59,7.26-5.86,9.07-3.33,1.82-6.61,2.31-15.26,2.31Z"/>
    <path class="cls-1" d="M290.13,98.6v-50.52h26.48c5.09,0,9.52.92,12.15,2.53,4.8,2.88,7.24,8.29,7.24,16.07l-.08,6.21c0,12.75-.45,15.51-3.22,19.7-2.96,4.26-7.85,6.01-16.88,6.01h-25.69ZM302.2,88.57h12.44c3.93,0,5.87-.93,7.41-3.57,1.19-1.96,1.56-4.86,1.56-12.41,0-6.5-.43-9.57-1.58-11.34-1.29-2.11-3.43-2.98-7.39-2.98h-12.44v30.31Z"/>
    <path class="cls-1" d="M358.9,98.6v-17.52l-17.9-33h13.72l4.45,9.5,2.36,5.11c.51,1.08.99,2.14,1.47,3.23l1.08,2.4h1.76l.28-.58c.45-.94.92-1.96,1.38-2.94l.99-2.11,2.44-5.12,4.6-9.51h13.87l-18.43,32.99v17.53h-12.07Z"/>
    <path class="cls-2" d="M397.82,98.6v-50.52h27.5c11.02,0,14.74,3.26,14.74,12.93,0,4.85-.79,7.23-2.9,8.8-1.69,1.25-2.86,1.72-4.97,2.02l-.87.12v2.05l.92.08c6.74.59,8.69,3.15,8.69,11.44,0,10.03-3.57,13.09-15.29,13.09h-27.82ZM409.89,89.04h10.39c5.86,0,8.65-.88,8.65-5.9,0-3.05-.47-5-2.86-5.91q-.69-.29-4.81-.46h-11.37s0,12.27,0,12.27ZM409.89,69.11h9.91c4.92-.08,5.01-.08,6.03-.7,2.31-1,2.31-4.28,2.31-5.36,0-4.11-1.43-5.42-5.9-5.42h-12.36v11.48Z"/>
    <path class="cls-2" d="M472.91,98.99c-8.13,0-12.18-.53-15.49-2.04-4.31-2.04-6.05-4.95-6.42-10.72-.16-1.56-.16-2.07-.16-4.9v-33.25h12.07v33.25c0,6.63,2.36,7.63,10.47,7.63,7.36,0,9.05-1.56,9.05-8.34v-32.54h12.07v32.15c0,.71-.39,6.67-.47,7.37-.51,4.03-2.59,7.26-5.86,9.07-3.33,1.82-6.61,2.31-15.26,2.31Z"/>
    <path class="cls-2" d="M506.62,98.6v-50.52h26.48c5.09,0,9.52.92,12.15,2.53,4.8,2.88,7.24,8.29,7.24,16.07l-.08,6.21c0,12.75-.45,15.51-3.22,19.7-2.96,4.26-7.85,6.01-16.88,6.01h-25.69ZM518.69,88.57h12.44c3.93,0,5.87-.93,7.41-3.57,1.19-1.96,1.56-4.86,1.56-12.41,0-6.5-.43-9.57-1.58-11.34-1.29-2.11-3.43-2.98-7.39-2.98h-12.44v30.31Z"/>
    <path class="cls-2" d="M562.94,98.6v-50.52h26.48c5.09,0,9.52.92,12.15,2.53,4.8,2.88,7.24,8.29,7.24,16.07l-.08,6.21c0,12.75-.45,15.51-3.22,19.7-2.96,4.26-7.85,6.01-16.88,6.01h-25.69ZM575.02,88.57h12.44c3.93,0,5.87-.93,7.41-3.57,1.19-1.96,1.56-4.86,1.56-12.41,0-6.5-.43-9.57-1.58-11.34-1.29-2.11-3.43-2.98-7.39-2.98h-12.44v30.31Z"/>
    <path class="cls-2" d="M631.72,98.6v-17.52l-17.9-33h13.72l4.45,9.5,2.36,5.11c.5,1.05.96,2.09,1.44,3.15l1.12,2.48h1.76l2.64-5.62,2.44-5.12,4.6-9.51h13.87l-18.43,32.99v17.53h-12.07Z"/>
  </g>
</svg>